<svg height="1024" node-id="1" sillyvg="true" template-height="1024" template-width="1024" version="1.1" viewBox="0 0 1024 1024" width="1024" xmlns="http://www.w3.org/2000/svg" xmlns:xlink="http://www.w3.org/1999/xlink"><defs node-id="37"><linearGradient gradientUnits="objectBoundingBox" id="linearGradient-2" node-id="7" spreadMethod="pad" x1="0.72088474" x2="0.35804775" y1="0.35417992" y2="0.60930437"><stop offset="0" stop-color="#a5bfff"/><stop offset="1" stop-color="#b5d7ff"/></linearGradient><linearGradient gradientUnits="objectBoundingBox" id="linearGradient-4" node-id="12" spreadMethod="pad" x1="0.70224833" x2="0.22647664" y1="0.26412997" y2="0.944111"><stop offset="0" stop-color="#3e83ee"/><stop offset="1" stop-color="#5986f0"/></linearGradient><linearGradient gradientUnits="objectBoundingBox" id="linearGradient-6" node-id="17" spreadMethod="pad" x1="0.8053372" x2="0" y1="0.36442262" y2="0.741666"><stop offset="0" stop-color="#459fff"/><stop offset="1" stop-color="#c2ddff"/><stop offset="1" stop-color="#4b95f2"/></linearGradient><filter height="1.845" id="filter-1" node-id="5" width="1.442" x="-0.221" y="-0.423"><feGaussianBlur color-interpolation-filters="linearRGB" in="SourceGraphic" result="result1" stdDeviation="50 50"></feGaussianBlur></filter><filter height="1.017" id="filter-3" node-id="10" width="1.011" x="-0.005" y="-0.009"><feGaussianBlur color-interpolation-filters="linearRGB" in="SourceGraphic" result="result1" stdDeviation="1 1"></feGaussianBlur></filter><filter height="1" id="filter-5" node-id="15" width="1" x="0" y="0"><feGaussianBlur color-interpolation-filters="linearRGB" in="SourceGraphic" result="result1" stdDeviation="0 0"></feGaussianBlur></filter></defs><g node-id="70"><path d="M 182.25 656.17 L 580.24 885.96 L 861.00 619.15 L 404.83 531.14 Z" fill="#595656" fill-opacity="0.316569" fill-rule="evenodd" filter="url(#filter-1)" group-id="1" id="路径-23" node-id="23" stroke="none" target-height="354.8211" target-width="678.75" target-x="182.25" target-y="531.13995"/></g><g node-id="71"><g node-id="72"><path d="M 507.95 1026.13 L -2.13 778.78 L -2.13 602.44 L 507.95 849.47 Z" fill="#b6d5ff" fill-rule="nonzero" group-id="2,3" id="路径" node-id="26" stroke="none" target-height="423.68927" target-width="510.0797" target-x="-2.127565" target-y="602.4382"/><path d="M 507.95 1026.13 L 1018.03 778.78 L 1018.03 602.44 L 507.95 849.47 Z" fill="#95afe7" fill-rule="nonzero" group-id="2,3" id="路径" node-id="27" stroke="none" target-height="423.68927" target-width="510.07974" target-x="507.95248" target-y="602.4382"/><path d="M 1018.03 602.44 L 507.95 849.47 L -2.13 602.44 L 507.95 391.54 Z" fill="url(#linearGradient-2)" fill-rule="nonzero" group-id="2,3" id="路径" node-id="28" stroke="none" target-height="457.92725" target-width="1020.1595" target-x="-2.1271682" target-y="391.54236"/></g><g node-id="73"><path d="M 144.37 538.62 L 515.45 727.10 L 1021.87 512.25 L 583.12 315.06 Z" fill="#5f6fa5" fill-opacity="0.13537017" fill-rule="evenodd" filter="url(#filter-3)" group-id="2,4" id="路径-24" node-id="29" stroke="none" target-height="412.03784" target-width="877.5053" target-x="144.36684" target-y="315.0598"/></g><g node-id="74"><path d="M 507.95 683.71 L -2.13 436.37 L -2.13 260.02 L 507.95 507.06 Z" fill="#5da4ff" fill-rule="nonzero" group-id="2,5" id="路径" node-id="31" stroke="none" target-height="423.68918" target-width="510.0797" target-x="-2.127565" target-y="260.0239"/><g node-id="77"><path d="M 507.95 683.71 L 1018.03 436.37 L 1018.03 260.02 L 507.95 507.06 Z" fill="url(#linearGradient-4)" fill-rule="nonzero" filter="url(#filter-5)" group-id="2,5,8" id="路径" node-id="32" stroke="none" target-height="423.68918" target-width="510.07974" target-x="507.95248" target-y="260.0239"/></g><path d="M 1018.03 260.02 L 507.95 507.06 L -2.13 260.02 L 507.95 49.13 Z" fill="url(#linearGradient-6)" fill-rule="nonzero" group-id="2,5" id="路径" node-id="33" stroke="none" target-height="457.92728" target-width="1020.1595" target-x="-2.1271682" target-y="49.127888"/></g><g node-id="75"><path d="M 324.19 274.68 L 301.02 168.00 L 416.39 167.22 L 461.19 166.67 L 472.51 166.33 L 476.76 165.94 L 486.57 207.84 L 371.79 207.83 L 382.92 274.69 L 324.19 274.68 Z" fill="#1960d1" fill-rule="nonzero" group-id="2,6" id="路径-22" node-id="34" stroke="none" target-height="108.74487" target-width="185.55798" target-x="301.01505" target-y="165.94382"/></g><path d="M 509.39 348.93 L 666.59 348.93 L 666.28 255.24 L 666.57 235.84 L 598.25 235.83 L 598.26 302.17 L 509.39 302.17 L 509.39 348.93 Z" fill="#1960d1" fill-rule="nonzero" group-id="2,7" id="路径-22备份" node-id="35" stroke="none" target-height="113.09982" target-width="157.19522" target-x="509.3903" target-y="235.83429"/></g></svg>
