<svg width="40" height="40" viewBox="0 0 200 200" fill="none" xmlns="http://www.w3.org/2000/svg">
<g clip-path="url(#clip0_138_26)">
<rect width="200" height="200" rx="8" fill="#689CD9"/>
<path d="M59.18 52.7C74.86 47.9 89.58 45.5 103.34 45.5C117.207 45.5 128.247 48.06 136.46 53.18C138.273 58.62 139.18 63.8467 139.18 68.86C139.18 80.06 134.38 89.2333 124.78 96.38C130.86 101.073 135.607 106.407 139.02 112.38C142.54 118.353 144.3 123.9 144.3 129.02C144.3 137.447 140.407 144.327 132.62 149.66C124.833 154.993 112.673 157.66 96.14 157.66C86.7533 157.66 77.4733 157.02 68.3 155.74L59.18 52.7ZM85.42 143.9C91.2867 145.5 96.8867 146.3 102.22 146.3C107.553 146.3 111.073 145.98 112.78 145.34C116.513 137.873 118.38 130.353 118.38 122.78C118.38 115.1 116.62 108.54 113.1 103.1C106.7 105.98 98.6467 108.54 88.94 110.78L85.42 143.9ZM113.26 74.46C113.26 71.0467 112.513 67.58 111.02 64.06C109.527 60.4333 107.447 57.7133 104.78 55.9C102.327 55.9 98.9133 56.54 94.54 57.82L89.9 101.66C97.0467 98.78 102.7 94.8333 106.86 89.82C111.127 84.7 113.26 79.58 113.26 74.46Z" fill="white"/>
</g>
<defs>
<clipPath id="clip0_138_26">
<rect width="200" height="200" rx="8" fill="white"/>
</clipPath>
</defs>
</svg>
